<?xml version="1.0" encoding="utf-8"?>
<!-- Generator: Adobe Illustrator 18.1.1, SVG Export Plug-In . SVG Version: 6.00 Build 0)  -->
<svg version="1.1" id="Capa_1" xmlns="http://www.w3.org/2000/svg" xmlns:xlink="http://www.w3.org/1999/xlink" x="0px" y="0px"
	 viewBox="-463 265 32 32" enable-background="new -463 265 32 32" xml:space="preserve">
<path fill="#FFFFFF" d="M-439.2,272.5c-0.2,0-0.3,0-0.5,0c-1.4-3.3-4.7-5.5-8.3-5.5c-5,0-9,4-9,8.8c0,0,0,0,0,0.1
	c-3.3,0.3-6,3-6,6.3c0,3.5,2.9,6.3,6.5,6.3h17.3c4.5,0,8.2-3.6,8.2-8C-431,276.1-434.7,272.5-439.2,272.5z"/>
<path fill="#FFFFFF" d="M-456.3,290.2l-3,3c-0.4,0.4-0.4,1.1,0,1.5c0.2,0.2,0.5,0.3,0.7,0.3s0.5-0.1,0.7-0.3l3-3
	c0.4-0.4,0.4-1.1,0-1.5C-455.2,289.7-455.9,289.7-456.3,290.2z"/>
<path fill="#FFFFFF" d="M-449.9,290.2l-3,3c-0.4,0.4-0.4,1.1,0,1.5c0.2,0.2,0.5,0.3,0.7,0.3s0.5-0.1,0.7-0.3l3-3
	c0.4-0.4,0.4-1.1,0-1.5C-448.8,289.7-449.5,289.7-449.9,290.2z"/>
<path fill="#FFFFFF" d="M-443.4,290.2l-3,3c-0.4,0.4-0.4,1.1,0,1.5c0.2,0.2,0.5,0.3,0.7,0.3s0.5-0.1,0.7-0.3l3-3
	c0.4-0.4,0.4-1.1,0-1.5C-442.4,289.7-443,289.7-443.4,290.2z"/>
<path fill="#FFFFFF" d="M-437,290.2l-3,3c-0.4,0.4-0.4,1.1,0,1.5c0.2,0.2,0.5,0.3,0.7,0.3s0.5-0.1,0.7-0.3l3-3
	c0.4-0.4,0.4-1.1,0-1.5C-435.9,289.7-436.6,289.7-437,290.2z"/>
</svg>
