<?xml version="1.0" encoding="iso-8859-1"?>
<!-- Generator: Adobe Illustrator 18.1.1, SVG Export Plug-In . SVG Version: 6.00 Build 0)  -->
<svg xmlns="http://www.w3.org/2000/svg" xmlns:xlink="http://www.w3.org/1999/xlink" version="1.1" id="Capa_1" x="0px" y="0px" viewBox="0 0 32 32" style="enable-background:new 0 0 32 32;" xml:space="preserve" width="32px" height="32px">
<g>
	<path d="M28.533,3.097C27.402,1.647,22.938,0,16.034,0S4.576,1.387,3.534,3.097   c-1.998,3.281,5.79,5.838,3.125,8.258C1.305,16.219,3,21.148,4.576,22.71c2.083,2.063,4.093,3.416,9.374,5.161   C17.076,28.902,17.076,32,17.076,32s4.758-4.636-4.167-8.258c-3.748-1.521,0.937-5.352,7.292-9.291   C27.654,9.832,30.095,5.1,28.533,3.097z M16.016,7.032c-6.075,0-11-1.343-11-3s4.925-3,11-3s11,1.343,11,3   S22.091,7.032,16.016,7.032z" fill="#FFFFFF"/>
</g>
<g>
</g>
<g>
</g>
<g>
</g>
<g>
</g>
<g>
</g>
<g>
</g>
<g>
</g>
<g>
</g>
<g>
</g>
<g>
</g>
<g>
</g>
<g>
</g>
<g>
</g>
<g>
</g>
<g>
</g>
</svg>
